<svg xmlns="http://www.w3.org/2000/svg" version="1.1" xmlns:xlink="http://www.w3.org/1999/xlink" xmlns:svgjs="http://svgjs.dev/svgjs" width="1000" height="1000" viewBox="0 0 1000 1000"><rect width="1000" height="1000" fill="#2b6777"></rect><g transform="matrix(0.7,0,0,0.7,149.57605563665675,411.7719531686015)"><svg viewBox="0 0 396 100" data-background-color="#2b6777" preserveAspectRatio="xMidYMid meet" height="252" width="1000" xmlns="http://www.w3.org/2000/svg" xmlns:xlink="http://www.w3.org/1999/xlink"><g id="tight-bounds" transform="matrix(1,0,0,1,0.24008861730862918,0.015899564284893586)"><svg viewBox="0 0 395.52 99.96820087143018" height="99.96820087143018" width="395.52"><g><svg viewBox="0 0 395.52 99.96820087143018" height="99.96820087143018" width="395.52"><g><svg viewBox="0 0 395.52 99.96820087143018" height="99.96820087143018" width="395.52"><g><svg viewBox="0 0 395.52 99.96820087143018" height="99.96820087143018" width="395.52"><g><svg viewBox="0 0 395.52 99.96820087143018" height="99.96820087143018" width="395.52"><g><svg viewBox="0 0 395.52 99.96820087143018" height="99.96820087143018" width="395.52"><path d="M394.594 21.441C392.735 11.065 387.435 8.18 387.435 8.18 371.165-2.508 350.86-0.204 332.619 1.331 300.414 1.394 268.339 3.676 236.208 4.901 168.767 5.088 100.749 2.016 33.643 9.591 27.339 11.915-6.54 10.048 1.121 22.769 3.129 28.062 10.456 33.935 10.232 38.791 11.236 39.642 12.631 37.691 13.226 38.916 15.309 42.215 18.711 40.659 21.501 42.61 17.614 47.819 20.403 52.156 23.062 56.701 18.377 57.884 12.371 57.324 9.675 61.246 9.396 64.089 7.89 63.55 6.235 63.425 5.026 63.342 2.59 63.654 2.999 64.546 4.394 67.597-1.594 69.361 2.162 72.349-0.422 75.587 3.948 78.388 3.353 81.896 3.278 82.601 3.687 83.203 4.338 83.369 7.22 84.262 3.018 86.005 3.464 87.893 33.029 100.802 65.104 91.878 95.394 97.814 103.259 93.663 97.346 99.287 100.489 98.415 102.943 97.398 104.728 101.611 107.499 99.225 107.927 98.54 107.276 96.921 108.8 97.232 109.6 97.398 110.307 97.357 110.418 96.402 110.586 94.97 109.117 95.863 108.726 95.116 112.947 91.338 111.906 100.325 115.866 99.951 115.68 98.851 114.528 97.274 116.889 97.481 119.232 95.904 119.306 94.597 121.389 98.146 121.463 98.913 121.835 99.453 122.43 99.827 128.938 95.966 135.409 101.196 142.233 99.453 146.417 97.544 150.433 100.491 154.672 99.764 156.16 99.183 157.666 98.146 159.098 99.889 176.632 100.262 195.319 98.706 211.943 99.951 256.364 97.627 303.835 100.906 350.674 97.834 361.719 96.651 373.192 94.97 383.958 93.621 383.958 93.621 392.679 89.927 392.679 73.325S394.538 58.797 394.817 45.577C395.096 32.358 396.398 31.818 394.538 21.441Z" opacity="1" fill="#ffffff" data-fill-palette-color="tertiary"></path><g transform="matrix(1,0,0,1,55.76832,26.230666666666668)"><svg width="283.98335999999995" viewBox="2.549999952316284 -36.349998474121094 295.27001953125 49.39999771118164" height="47.50686753809684" data-palette-color="#2b6777"><path d="M4.45-17.7Q4.45-21.5 2.55-23.75L2.55-23.75 3.8-25Q6.1-23.25 6.35-19.75L6.35-19.75Q8.1-22.6 10.23-23.93 12.35-25.25 15.5-25.25L15.5-25.25Q19.35-25.25 21.4-23.28 23.45-21.3 23.4-17.4L23.4-17.4 23.25-0.05 21.25-0.05 21.3-16.85Q21.3-23.35 15.25-23.35L15.25-23.35Q12.5-23.35 10.53-22.03 8.55-20.7 6.55-17.9L6.55-17.9 6.55-0.05 4.45-0.05 4.45-17.7ZM31.3 0L31.3-25 33.55-25 33.55 0 31.3 0ZM32.4-28.75Q31.6-28.75 31.1-29.25 30.6-29.75 30.6-30.55L30.6-30.55Q30.6-31.35 31.1-31.85 31.6-32.35 32.4-32.35L32.4-32.35Q33.2-32.35 33.72-31.85 34.25-31.35 34.25-30.55L34.25-30.55Q34.25-29.75 33.72-29.25 33.2-28.75 32.4-28.75L32.4-28.75ZM51.6 0.3Q46.2 0.3 43.17-2.98 40.15-6.25 40.15-12.1L40.15-12.1Q40.15-16.15 41.6-19.18 43.05-22.2 45.75-23.85 48.45-25.5 52-25.5L52-25.5Q56-25.5 58.9-22.75L58.9-22.75 57.55-21.4Q56.35-22.55 55-23.08 53.65-23.6 52-23.6L52-23.6Q49.15-23.6 46.92-22.13 44.7-20.65 43.47-18 42.25-15.35 42.25-11.95L42.25-11.95Q42.25-7.15 44.82-4.38 47.4-1.6 51.85-1.6L51.85-1.6Q53.7-1.6 55.62-2.18 57.55-2.75 59.8-4L59.8-4 60.75-2.45Q58.75-1.15 56.35-0.43 53.95 0.3 51.6 0.3L51.6 0.3ZM76.64 0.45Q73.09 0.45 70.37-1.15 67.64-2.75 66.12-5.65 64.59-8.55 64.59-12.3L64.59-12.3Q64.59-16.1 66.12-19.03 67.64-21.95 70.39-23.6 73.14-25.25 76.69-25.25L76.69-25.25Q80.24-25.25 82.99-23.63 85.74-22 87.27-19.07 88.79-16.15 88.79-12.35L88.79-12.35Q88.79-8.6 87.27-5.68 85.74-2.75 82.99-1.15 80.24 0.45 76.64 0.45L76.64 0.45ZM76.69-1.45Q79.64-1.45 81.92-2.85 84.19-4.25 85.44-6.78 86.69-9.3 86.69-12.55L86.69-12.55Q86.69-15.75 85.44-18.2 84.19-20.65 81.92-22 79.64-23.35 76.69-23.35L76.69-23.35Q73.74-23.35 71.47-21.98 69.19-20.6 67.94-18.1 66.69-15.6 66.69-12.35L66.69-12.35Q66.69-9.15 67.94-6.68 69.19-4.2 71.47-2.83 73.74-1.45 76.69-1.45L76.69-1.45ZM95.29-0.05L95.29-36.35 97.39-36.35 97.39-0.05 95.29-0.05ZM106.14-11.75Q106.14-8.05 107.96-4.73 109.79-1.4 115.29-1.4L115.29-1.4Q117.34-1.4 119.14-1.98 120.94-2.55 123.19-3.8L123.19-3.8 124.14-2.25Q122.19-0.95 119.84-0.23 117.49 0.5 114.99 0.5L114.99 0.5Q109.79 0.5 106.91-2.8 104.04-6.1 104.04-11.65L104.04-11.65Q104.04-15.6 105.39-18.7 106.74-21.8 109.21-23.53 111.69-25.25 115.04-25.25L115.04-25.25Q117.94-25.25 120.21-23.93 122.49-22.6 123.76-20.28 125.04-17.95 125.04-14.95L125.04-14.95Q125.04-14.05 124.84-11.75L124.84-11.75 106.14-11.75ZM106.24-13.65L122.84-13.65Q122.94-14.2 122.94-15.05L122.94-15.05Q122.94-17.45 121.86-19.38 120.79-21.3 118.99-22.38 117.19-23.45 115.04-23.45L115.04-23.45Q111.54-23.45 109.11-20.75 106.69-18.05 106.24-13.65L106.24-13.65ZM145.73-17.7Q145.73-21.5 143.83-23.75L143.83-23.75 145.08-25Q146.23-24.05 146.81-22.85 147.38-21.65 147.63-19.9L147.63-19.9Q150.28-25.25 155.78-25.25L155.78-25.25Q158.48-25.25 160.28-23.93 162.08-22.6 162.83-20L162.83-20Q164.18-22.6 166.33-23.93 168.48-25.25 171.08-25.25L171.08-25.25Q174.43-25.25 176.48-23.18 178.53-21.1 178.48-17.4L178.48-17.4 178.28-0.05 176.28-0.05 176.38-16.85Q176.38-19.95 175.03-21.65 173.68-23.35 170.83-23.35L170.83-23.35Q165.88-23.35 163.13-18L163.13-18 163.13-0.05 161.03-0.05 161.03-16.85Q161.03-19.85 159.66-21.6 158.28-23.35 155.63-23.35L155.63-23.35Q153.08-23.35 150.91-21.8 148.73-20.25 147.83-18.05L147.83-18.05 147.83-0.05 145.73-0.05 145.73-17.7ZM186.73-11.75Q186.73-8.05 188.56-4.73 190.38-1.4 195.88-1.4L195.88-1.4Q197.93-1.4 199.73-1.98 201.53-2.55 203.78-3.8L203.78-3.8 204.73-2.25Q202.78-0.95 200.43-0.23 198.08 0.5 195.58 0.5L195.58 0.5Q190.38 0.5 187.51-2.8 184.63-6.1 184.63-11.65L184.63-11.65Q184.63-15.6 185.98-18.7 187.33-21.8 189.81-23.53 192.28-25.25 195.63-25.25L195.63-25.25Q198.53-25.25 200.81-23.93 203.08-22.6 204.36-20.28 205.63-17.95 205.63-14.95L205.63-14.95Q205.63-14.05 205.43-11.75L205.43-11.75 186.73-11.75ZM186.83-13.65L203.43-13.65Q203.53-14.2 203.53-15.05L203.53-15.05Q203.53-17.45 202.46-19.38 201.38-21.3 199.58-22.38 197.78-23.45 195.63-23.45L195.63-23.45Q192.13-23.45 189.71-20.75 187.28-18.05 186.83-13.65L186.83-13.65ZM222.68 13.05Q217.18 13.05 214.23 10.93 211.28 8.8 211.28 3.8L211.28 3.8Q211.28 3 211.53 0.75L211.53 0.75Q211.63 0.2 211.73-0.8L211.73-0.8Q210.68-1.55 210.05-2.73 209.43-3.9 209.43-5.25L209.43-5.25Q209.43-6.65 210.13-8.08 210.83-9.5 212.58-10.25L212.58-10.25Q213.23-10.55 213.93-10.63 214.63-10.7 216.23-10.75L216.23-10.75Q213.93-13 213.93-16.75L213.93-16.75Q213.93-19.5 215.15-21.53 216.38-23.55 218.45-24.6 220.53-25.65 223.13-25.65L223.13-25.65Q225.03-25.65 226.63-24.95L226.63-24.95 234.73-24.95 234.73-23.1 229.43-23.4Q230.93-22.1 231.63-20.5 232.33-18.9 232.33-16.85L232.33-16.85Q232.33-12.75 229.8-10.45 227.28-8.15 223.13-8.15L223.13-8.15Q220.33-8.15 218.28-9.25L218.28-9.25Q217.18-9.35 216.18-9.35L216.18-9.35Q215.18-9.35 214.38-9.15L214.38-9.15Q213.28-8.85 212.4-7.83 211.53-6.8 211.53-5.3L211.53-5.3Q211.53-3.6 212.78-2.8 214.03-2 216.63-2L216.63-2 220.13-2.1 224.43-2.2Q229.53-2.2 232.45-0.43 235.38 1.35 235.38 5.05L235.38 5.05Q235.38 9.2 231.75 11.13 228.13 13.05 222.68 13.05L222.68 13.05ZM223.23-10.05Q226.53-10.05 228.38-12 230.23-13.95 230.23-16.8L230.23-16.8Q230.23-19.95 228.2-21.85 226.18-23.75 223.08-23.75L223.08-23.75Q219.88-23.75 217.95-21.8 216.03-19.85 216.03-16.8L216.03-16.8Q216.03-13.65 218.08-11.85 220.13-10.05 223.23-10.05L223.23-10.05ZM222.58 11.15Q227.28 11.15 230.28 9.7 233.28 8.25 233.28 5.15L233.28 5.15Q233.28-0.25 223.98-0.25L223.98-0.25Q222.78-0.25 220.88-0.15L220.88-0.15 217.83-0.1Q216.38-0.1 215.18-0.15 213.98-0.2 213.38-0.35L213.38-0.35Q213.43-0.1 213.43 0.65L213.43 0.65 213.38 3.2Q213.38 7.8 215.7 9.47 218.03 11.15 222.58 11.15L222.58 11.15ZM257.28 0.25Q256.18-0.65 255.7-1.63 255.23-2.6 254.68-4.4L254.68-4.4Q252.88 0.45 246.68 0.45L246.68 0.45Q242.68 0.45 240.48-1.55 238.28-3.55 238.28-7.15L238.28-7.15Q238.28-11 240.93-12.95 243.58-14.9 248.73-14.9L248.73-14.9 254.58-14.9 254.58-17.1Q254.58-20.45 253.23-21.98 251.88-23.5 248.78-23.5L248.78-23.5Q246.68-23.5 244.6-22.85 242.53-22.2 240.88-20.95L240.88-20.95 239.88-22.5Q243.63-25.5 248.83-25.5L248.83-25.5Q252.83-25.5 254.75-23.58 256.68-21.65 256.68-17.65L256.68-17.65 256.68-7.05Q256.68-3.15 258.53-1L258.53-1 257.28 0.25ZM246.73-1.45Q250.28-1.45 252.43-3.48 254.58-5.5 254.58-8.75L254.58-8.75 254.58-13 248.98-13Q244.43-13 242.4-11.6 240.38-10.2 240.38-7.2L240.38-7.2Q240.38-4.4 242.08-2.93 243.78-1.45 246.73-1.45L246.73-1.45ZM265.02-0.05L265.02-36.35 267.12-36.35 267.12-0.05 265.02-0.05ZM285.67 0.45Q282.12 0.45 279.4-1.15 276.67-2.75 275.15-5.65 273.62-8.55 273.62-12.3L273.62-12.3Q273.62-16.1 275.15-19.03 276.67-21.95 279.42-23.6 282.17-25.25 285.72-25.25L285.72-25.25Q289.27-25.25 292.02-23.63 294.77-22 296.3-19.07 297.82-16.15 297.82-12.35L297.82-12.35Q297.82-8.6 296.3-5.68 294.77-2.75 292.02-1.15 289.27 0.45 285.67 0.45L285.67 0.45ZM285.72-1.45Q288.67-1.45 290.95-2.85 293.22-4.25 294.47-6.78 295.72-9.3 295.72-12.55L295.72-12.55Q295.72-15.75 294.47-18.2 293.22-20.65 290.95-22 288.67-23.35 285.72-23.35L285.72-23.35Q282.77-23.35 280.5-21.98 278.22-20.6 276.97-18.1 275.72-15.6 275.72-12.35L275.72-12.35Q275.72-9.15 276.97-6.68 278.22-4.2 280.5-2.83 282.77-1.45 285.72-1.45L285.72-1.45Z" opacity="1" transform="matrix(1,0,0,1,0,0)" fill="#2b6777" class="undefined-text-0" data-fill-palette-color="quaternary" id="text-0"></path></svg></g></svg></g></svg></g></svg></g><g></g></svg></g></svg></g><defs></defs></svg><rect width="395.52" height="99.96820087143018" fill="none" stroke="none" visibility="hidden"></rect></g></svg></g></svg>